<svg width="100" height="100" xmlns="http://www.w3.org/2000/svg">
    <!-- Horns -->
    <path d="M10,30 Q50,-20 90,30" fill="none" stroke="white" stroke-width="3"/>
    <path d="M5,40 Q50,10 95,40" fill="none" stroke="white" stroke-width="2"/>

    <!-- Eyes - Almond shaped and slightly angry -->
    <path d="M20,40 Q30,30 40,40 T60,40" fill="none" stroke="white" stroke-width="2"/>
    <path d="M60,40 Q70,30 80,40 T100,40" fill="none" stroke="white" stroke-width="2"/>

    <!-- Nose - Just a hint of a nose bridge -->
    <line x1="48" y1="50" x2="52" y2="50" stroke="white" stroke-width="2"/>

    <!-- Mouth - Slightly curved downwards for a menacing look -->
    <path d="M30,65 Q50,75 70,65" fill="none" stroke="white" stroke-width="2"/>

    <!-- Teeth - Sharp and uneven -->
    <line x1="35" y1="65" x2="35" y2="75" stroke="white" stroke-width="2"/>
    <line x1="45" y1="67" x2="45" y2="77" stroke="white" stroke-width="2"/>
    <line x1="55" y1="67" x2="55" y2="77" stroke="white" stroke-width="2"/>
    <line x1="65" y1="65" x2="65" y2="75" stroke="white" stroke-width="2"/>

    <!-- Chin - A hint of a chin line to give the face some structure -->
    <path d="M30,75 Q50,85 70,75" fill="none" stroke="white" stroke-width="2"/>
</svg>
